{"asset":{"version":"2.0","generator":"babylon.js glTF exporter for   v"},"scene":0,"scenes":[{"nodes":[0,1],"extensions":{}}],"nodes":[{"mesh":0,"translation":[0.0,15.0,0.0],"rotation":[0.0,0.0,0.0,1.0],"scale":[1.0,1.0,1.0],"name":"Box001"},{"translation":[0.0,0.0,0.0],"rotation":[0.0,0.0,0.0,1.0],"scale":[1.0,1.0,1.0],"name":"Default light"}],"meshes":[{"primitives":[{"attributes":{"POSITION":1,"NORMAL":2,"TEXCOORD_0":3},"indices":0,"mode":4,"material":0}],"name":"Box001"}],"accessors":[{"bufferView":0,"componentType":5123,"count":36,"type":"SCALAR","name":"accessorIndices"},{"bufferView":1,"componentType":5126,"count":36,"max":[15.0,15.0,15.0],"min":[-15.0,-15.0,-15.0],"type":"VEC3","name":"accessorPositions"},{"bufferView":1,"byteOffset":432,"componentType":5126,"count":36,"type":"VEC3","name":"accessorNormals"},{"bufferView":2,"componentType":5126,"count":36,"type":"VEC2","name":"accessorUVs"},{"bufferView":3,"componentType":5126,"count":65,"max":[4.0],"min":[0.0],"type":"SCALAR","name":"accessorAnimationInput"},{"bufferView":4,"componentType":5126,"count":65,"type":"VEC3","name":"accessorAnimationPositions"},{"bufferView":3,"byteOffset":260,"componentType":5126,"count":81,"max":[4.0],"min":[0.0],"type":"SCALAR","name":"accessorAnimationInput"},{"bufferView":5,"componentType":5126,"count":81,"type":"VEC4","name":"accessorAnimationRotations"},{"bufferView":3,"byteOffset":584,"componentType":5126,"count":41,"max":[4.0],"min":[0.0],"type":"SCALAR","name":"accessorAnimationInput"},{"bufferView":4,"byteOffset":780,"componentType":5126,"count":41,"type":"VEC3","name":"accessorAnimationScales"}],"bufferViews":[{"buffer":0,"byteLength":72,"name":"bufferViewScalar"},{"buffer":0,"byteOffset":72,"byteLength":864,"byteStride":12,"name":"bufferViewFloatVec3"},{"buffer":0,"byteOffset":936,"byteLength":288,"byteStride":8,"name":"bufferViewFloatVec2"},{"buffer":0,"byteOffset":1224,"byteLength":748,"name":"bufferViewAnimationFloatScalar"},{"buffer":0,"byteOffset":1972,"byteLength":1272,"name":"bufferViewAnimationFloatVec3"},{"buffer":0,"byteOffset":3244,"byteLength":1296,"name":"bufferViewAnimationFloatVec4"}],"buffers":[{"uri":"Cube.bin","byteLength":4540}],"materials":[{"pbrMetallicRoughness":{"baseColorFactor":[1.0,1.0,1.0,1.0],"baseColorTexture":{"index":0,"texCoord":0},"metallicFactor":0.0,"roughnessFactor":0.450053632},"emissiveFactor":[0.0,0.0,0.0],"alphaMode":"OPAQUE","name":"CubeFace_texture"}],"textures":[{"sampler":0,"source":0,"name":"CubeFace_texture_baseColor.jpg"}],"images":[{"uri":"./CubeFace_texture_baseColor.jpg"}],"samplers":[{"magFilter":9729,"minFilter":9987,"wrapS":10497,"wrapT":10497}],"animations":[{"channels":[{"sampler":0,"target":{"node":0,"path":"translation"}},{"sampler":1,"target":{"node":0,"path":"rotation"}},{"sampler":2,"target":{"node":0,"path":"scale"}}],"samplers":[{"input":4,"interpolation":"LINEAR","output":5},{"input":6,"interpolation":"LINEAR","output":7},{"input":8,"interpolation":"LINEAR","output":9}],"name":"All Animations"}]}
